<?xml version="1.0" encoding="iso-8859-1"?>
<!-- Generator: Adobe Illustrator 17.0.0, SVG Export Plug-In . SVG Version: 6.00 Build 0)  -->
<!DOCTYPE svg PUBLIC "-//W3C//DTD SVG 1.1//EN" "http://www.w3.org/Graphics/SVG/1.1/DTD/svg11.dtd">
<svg version="1.1" id="Capa_1" xmlns="http://www.w3.org/2000/svg" xmlns:xlink="http://www.w3.org/1999/xlink" x="0px" y="0px"
	 width="64px" height="64px" viewBox="0 0 64 64" style="enable-background:new 0 0 64 64;" xml:space="preserve">
<g>
	<path d="M38.639,28.021c0.252,0.212,0.473,0.474,0.643,0.819l6.174-2.555c0.552-0.228,0.814-0.86,0.585-1.412L36.759,2.44
		c-0.172-0.416-0.575-0.668-0.999-0.668c-0.138,0-0.278,0.026-0.413,0.082L20.119,8.156c-0.551,0.228-0.814,0.86-0.585,1.412
		l7.181,17.353c-0.476,0.483-1.022,1.054-1.71,1.758c-2.544,2.601-2.495,4.161-3.208,8.561c-0.475,2.93-1.75,3.962-1.156,5.698
		c0.387,1.047,1.011,1.829,1.45,2.293c0.066,0.069,0.122,0.127,0.178,0.181c0.164,0.16,0.274,0.255,0.305,0.28
		c0.092,0.092,0.182,0.181,0.282,0.279l-0.001,0.001l0.339,0.332l0.182,0.178l0.337,0.331l0.181,0.178l0.182,0.178l-0.004,0.007
		c3.962,3.947,4.448,4.792,7.249,7.921c2.982,3.331,4.278,6.488,4.278,6.488s9.662-3.232,8.69-4.864
		c-0.972-1.632-1.304-4.064-1.304-4.064c-0.309-5.706-4.796-12.87-4.464-12.87c0.023,0,0.071,0.036,0.146,0.11
		c0.663,0.661,1.126,1.021,1.665,1.021c0.382,0,0.801-0.181,1.356-0.565c1.336-0.924-1.326-3.787-1.326-3.787
		s0.613-0.166,1.429-1.388s-4.2-3.826-4.2-3.826s2.14-0.433,1.262-2.265c-0.01-0.021-0.021-0.036-0.031-0.056
		c-0.199-0.391-0.442-0.64-0.702-0.794c-0.307-0.182-0.637-0.237-0.948-0.237c-0.398,0-0.762,0.084-1,0.084
		c-0.122,0-0.211-0.022-0.254-0.089c-0.248-0.391-0.63-1.441-0.63-1.441c-0.686-1.884-1.501-2.389-2.177-2.389
		c-0.779,0-1.374,0.67-1.374,0.67s-2.291,1.462-1.127,6.507c0.007,0.029,0.01,0.055,0.017,0.085
		c0.075,0.318,0.144,0.622,0.205,0.911c0.927,4.359,0.35,5.484,0.35,5.484c-0.407,0.351-0.784,0.49-1.126,0.49
		c-0.713,0-1.273-0.602-1.634-1.143c-0.036-0.108-0.07-0.221-0.102-0.337c-0.029-0.103-0.056-0.21-0.081-0.318
		c-0.38-1.615-0.449-3.721-0.454-3.891l0.178-0.257c0.179-0.369,0.395-0.672,0.615-0.944L28.817,32
		c0.172,0.416,0.575,0.668,0.999,0.668c0.138,0,0.278-0.027,0.413-0.082l0.13-0.054c-0.066-0.314-0.137-0.64-0.22-0.991
		c0-0.002-0.001-0.004-0.001-0.005l-0.322,0.133c-0.006,0-0.055-0.001-0.075-0.05l-0.391-0.945l-0.001,0l-0.081-0.196l-0.151-0.366
		l-1.625-3.946c-0.002,0.002-0.004,0.003-0.005,0.005L20.458,9.185c-0.017-0.041,0.003-0.088,0.044-0.105L35.73,2.778
		c0.01-0.004,0.02-0.006,0.031-0.006c0.006,0,0.055,0.001,0.075,0.05l9.283,22.433c0.017,0.041-0.003,0.088-0.044,0.105
		L38.639,28.021z"/>
	<path d="M29.832,27.719c-0.01,0.012-0.015,0.028-0.026,0.039c0.004,0.018,0.008,0.06,0.013,0.112
		C29.824,27.821,29.826,27.768,29.832,27.719z"/>
	<path d="M31.004,24.831c0.035-0.039,0.068-0.074,0.101-0.107c-0.022,0.014-0.043,0.029-0.065,0.043
		c-0.004,0.007-0.004,0.013-0.007,0.021C31.024,24.801,31.012,24.816,31.004,24.831z"/>
	<path d="M33.204,22.75c0.296,0.39,0.727,0.621,1.206,0.649c0.032,0.002,0.061,0.015,0.094,0.015c0.22,0,0.438-0.044,0.651-0.132
		c0.893-0.369,1.263-1.308,0.88-2.232c-0.375-0.903-1.32-1.32-2.2-0.957c-0.428,0.177-0.753,0.504-0.914,0.92
		c-0.158,0.409-0.146,0.875,0.035,1.311C33.021,22.482,33.107,22.623,33.204,22.75z"/>
	<polygon points="34.675,19.094 30.947,9.284 28.242,10.403 32.536,19.979 	"/>
</g>
</svg>
